<svg width="227" height="62" viewBox="0 0 227 62" fill="none" xmlns="http://www.w3.org/2000/svg">
<path d="M2.41211 6.74179C2.41211 4.29985 4.59412 2.33569 7.17808 2.33569C9.81946 2.33569 11.9441 4.35294 11.9441 6.74179C11.9441 9.18373 9.76204 11.1479 7.17808 11.1479C4.59412 11.1479 2.41211 9.18373 2.41211 6.74179Z" fill="#C13427"/>
<path d="M7.23509 13.3776C3.27302 13.3776 0 10.4048 0 6.68879C0 2.9728 3.2156 0 7.23509 0C11.1972 0 14.4702 2.9728 14.4702 6.68879C14.4702 10.4048 11.1972 13.3776 7.23509 13.3776ZM7.23509 4.51228C5.9144 4.51228 4.88081 5.52091 4.88081 6.68879C4.88081 7.90976 5.97182 8.8653 7.23509 8.8653C8.55578 8.8653 9.58936 7.85667 9.58936 6.68879C9.58936 5.52091 8.55578 4.51228 7.23509 4.51228Z" fill="#C13427"/>
<path d="M86.0171 6.74179C86.0171 4.29985 88.1991 2.33569 90.7831 2.33569C93.367 2.33569 95.549 4.35294 95.549 6.74179C95.549 9.18373 93.367 11.1479 90.7831 11.1479C88.1991 11.1479 86.0171 9.18373 86.0171 6.74179Z" fill="#C13427"/>
<path d="M90.7829 13.3776C86.8209 13.3776 83.5479 10.4048 83.5479 6.68879C83.5479 2.9728 86.7634 0 90.7829 0C94.745 0 98.018 2.9728 98.018 6.68879C98.018 10.4048 94.745 13.3776 90.7829 13.3776ZM90.7829 4.51228C89.4622 4.51228 88.4287 5.52091 88.4287 6.68879C88.4287 7.90976 89.5197 8.8653 90.7829 8.8653C92.1036 8.8653 93.1372 7.85667 93.1372 6.68879C93.1372 5.52091 92.1036 4.51228 90.7829 4.51228Z" fill="#C13427"/>
<path d="M10.7383 18.2085H3.73291V58.0758H10.7383V18.2085Z" fill="#C13427"/>
<path d="M13.1494 60.3054H1.26318V15.9258H13.1494V60.3054ZM6.144 55.8462H8.32601V20.4381H6.144V55.8462Z" fill="#C13427"/>
<path d="M28.4239 2.28271H21.4185V42.15H28.4239V2.28271Z" fill="#C13427"/>
<path d="M19.0063 0.0532227H30.8926V44.4328H19.0063V0.0532227ZM26.0692 4.51241H23.8872V39.9736H26.0692V4.51241Z" fill="#C13427"/>
<path d="M70.6278 34.2399C70.6278 27.7635 64.9431 22.7203 57.9377 22.7203C50.9323 22.7203 45.2476 27.7635 45.2476 34.2399V58.0754H38.2422V34.8769C38.2422 24.8438 47.0851 17.0933 57.9951 17.0933C68.9052 17.0933 77.7481 24.8438 77.7481 34.8769V58.0754H70.7427V34.2399H70.6278Z" fill="#C13427"/>
<path d="M80.1022 60.3051H68.216V34.1869C68.216 28.9846 63.6797 24.897 57.9376 24.897C52.1955 24.897 47.6592 28.9846 47.6592 34.1869V60.3051H35.7729V34.877C35.7729 23.6229 45.4772 14.8638 57.9376 14.8638C70.398 14.8638 80.1022 23.676 80.1022 34.877V60.3051ZM73.0968 55.8459H75.2788V34.877C75.2788 26.171 67.6992 19.323 57.9376 19.323C48.176 19.323 40.6538 26.171 40.6538 34.877V55.8459H42.8358V34.24C42.8358 26.5426 49.4967 20.4908 57.9376 20.4908C66.3785 20.4908 73.0394 26.5426 73.0394 34.24V55.8459H73.0968Z" fill="#C13427"/>
<path d="M29.4567 53.6696C29.4567 56.1115 27.2747 58.0757 24.6908 58.0757C22.0494 58.0757 19.9248 56.0584 19.9248 53.6696C19.9248 51.2807 22.1068 49.2635 24.6908 49.2635C27.2747 49.2104 29.4567 51.2276 29.4567 53.6696Z" fill="#C13427"/>
<path d="M24.6335 46.9807C28.5956 46.9807 31.8686 49.9535 31.8686 53.6695C31.8686 57.3324 28.653 60.3583 24.6335 60.3583C20.6715 60.3583 17.3984 57.3855 17.3984 53.6695C17.3984 49.9535 20.6715 46.9807 24.6335 46.9807ZM24.6335 55.846C25.9542 55.846 26.9878 54.8374 26.9878 53.6695C26.9878 52.5016 25.8968 51.493 24.6335 51.493C23.3128 51.493 22.2793 52.5016 22.2793 53.6695C22.2793 54.8374 23.3128 55.846 24.6335 55.846Z" fill="#C13427"/>
<path d="M94.2866 18.2085H87.2812V58.0758H94.2866V18.2085Z" fill="#C13427"/>
<path d="M96.6979 60.3054H84.8691V15.9258H96.7554V60.3054H96.6979ZM89.6925 55.8462H91.8746V20.4381H89.6925V55.8462Z" fill="#C13427"/>
<path d="M170.657 33.7093V58.0755H163.651V33.0722C163.651 27.2328 158.541 22.7205 152.224 22.7205C145.908 22.7205 140.798 27.2328 140.798 33.0722V58.1286H133.792V33.0722C133.792 27.2328 128.682 22.7205 122.365 22.7205C116.049 22.7205 110.938 27.2328 110.938 33.0722V58.1286H103.933V33.7623C103.933 24.3662 112.144 17.1465 122.365 17.1465C128.337 17.1465 133.735 19.6416 137.295 23.623C140.798 19.6416 146.253 17.1465 152.224 17.1465C162.445 17.0934 170.657 24.3131 170.657 33.7093Z" fill="#C13427"/>
<path d="M173.068 60.3052H161.239V33.0723C161.239 28.5069 157.277 24.9502 152.224 24.9502C147.171 24.9502 143.209 28.5069 143.209 33.0723V60.3583H131.323V33.0723C131.323 28.5069 127.361 24.9502 122.308 24.9502C117.255 24.9502 113.292 28.5069 113.292 33.0723V60.3583H101.406V33.7624C101.406 23.1983 110.594 14.917 122.25 14.917C127.82 14.917 133.16 16.8812 137.18 20.3848C141.142 16.8812 146.482 14.917 152.109 14.917C163.823 14.917 173.011 23.1983 173.011 33.7624V60.3052H173.068ZM166.063 55.846H168.245V33.7093C168.245 25.6403 161.182 19.3231 152.224 19.3231C147.114 19.3231 142.348 21.3934 139.132 25.0033L137.295 27.1267L135.4 25.0563C132.127 21.4465 127.361 19.3762 122.308 19.3762C113.292 19.3762 106.287 25.6934 106.287 33.7624V55.8991H108.469V33.0723C108.469 26.0119 114.556 20.491 122.308 20.491C130.06 20.491 136.146 26.0119 136.146 33.0723V55.8991H138.328V33.0723C138.328 26.0119 144.415 20.491 152.167 20.491C159.919 20.491 166.005 26.0119 166.005 33.0723V55.846H166.063Z" fill="#C13427"/>
<path d="M223.944 38.1686V58.1288H217.053V52.3425C213.033 56.5362 207.291 59.1905 200.745 59.1905C187.94 59.1905 177.604 49.7413 177.604 38.1155C177.604 26.5429 187.998 17.0405 200.745 17.0405C213.55 17.0936 223.944 26.5429 223.944 38.1686ZM217.11 38.1686C217.11 29.6749 209.818 22.7207 200.918 22.7207C191.96 22.7207 184.725 29.6749 184.725 38.1686C184.725 46.6623 192.017 53.6165 200.918 53.6165C209.818 53.5634 217.11 46.6623 217.11 38.1686Z" fill="#C13427"/>
<path d="M200.802 61.42C186.677 61.42 175.192 50.9621 175.192 38.1154C175.192 25.2687 186.677 14.8108 200.802 14.8108C214.928 14.8108 226.412 25.2687 226.412 38.1154V60.3052H214.698V57.3324C210.679 59.9867 205.855 61.42 200.802 61.42ZM200.802 19.3231C189.375 19.3231 180.073 27.7637 180.073 38.1154C180.073 48.4671 189.375 56.9077 200.802 56.9077C206.43 56.9077 211.54 54.7312 215.272 50.8028L219.522 46.3436V55.7929H221.531V38.0623C221.531 27.7637 212.229 19.3231 200.802 19.3231ZM200.86 55.7929C190.581 55.7929 182.198 47.8831 182.198 38.1154C182.198 28.3476 190.581 20.4379 200.86 20.4379C211.138 20.4379 219.522 28.3476 219.522 38.1154C219.522 47.8831 211.138 55.7929 200.86 55.7929ZM200.86 24.9501C193.223 24.9501 187.079 30.8957 187.079 38.1685C187.079 45.4412 193.28 51.3868 200.86 51.3868C208.439 51.3868 214.641 45.4412 214.641 38.1685C214.698 30.8426 208.497 24.9501 200.86 24.9501Z" fill="#C13427"/>
</svg>
