<?xml version="1.0" encoding="utf-8"?>
<!-- Generator: Adobe Illustrator 22.0.0, SVG Export Plug-In . SVG Version: 6.00 Build 0)  -->
<svg version="1.1" id="Layer_1" xmlns="http://www.w3.org/2000/svg" xmlns:xlink="http://www.w3.org/1999/xlink" x="0px" y="0px"
	 viewBox="0 0 595.3 595.3" style="enable-background:new 0 0 595.3 595.3;" xml:space="preserve">
<style type="text/css">
	.st0{fill:#C13427;}
	.st1{fill:#D1DDD1;}
	.st2{fill:#5B5A55;}
	.st3{fill:#5E8797;}
	.st4{fill:#222E2E;}
	.st5{fill:#631D16;}
	.st6{fill:none;stroke:#C13427;stroke-miterlimit:10;}
</style>
<g>
	<g>
		<g>
			<path class="st6" d="M257.4,214c0-8.3,7-15,15.6-15s15.6,6.8,15.6,15s-7,15-15.6,15S257.4,222.2,257.4,214z"/>
			<path class="st6" d="M273,236.6c-12.9,0-23.4-10.1-23.4-22.6c0-12.5,10.5-22.6,23.4-22.6c12.9,0,23.4,10.1,23.4,22.6
				C296.4,226.4,285.9,236.6,273,236.6z M273,206.5c-4.3,0-7.7,3.3-7.7,7.4c0,4.1,3.5,7.4,7.7,7.4c4.3,0,7.7-3.3,7.7-7.4
				C280.7,209.9,277.2,206.5,273,206.5z"/>
		</g>
		<g>
			<rect x="261.5" y="252.9" class="st6" width="22.9" height="135.3"/>
			<path class="st6" d="M292.2,395.8h-38.6V245.3h38.6V395.8z M269.4,380.6h7.1V260.5h-7.1V380.6z"/>
		</g>
	</g>
	<g>
		<g>
			<path class="st6" d="M344.9,373.1c0,8.3-7,15-15.6,15s-15.6-6.8-15.6-15c0-8.3,7-15,15.6-15S344.9,364.9,344.9,373.1z"/>
			<path class="st6" d="M329.4,350.5c12.9,0,23.4,10.1,23.4,22.6c0,12.5-10.5,22.6-23.4,22.6c-12.9,0-23.4-10.1-23.4-22.6
				C305.9,360.7,316.4,350.5,329.4,350.5z M329.4,380.6c4.3,0,7.7-3.3,7.7-7.4c0-4.1-3.5-7.4-7.7-7.4c-4.3,0-7.7,3.3-7.7,7.4
				C321.6,377.2,325.1,380.6,329.4,380.6z"/>
		</g>
		<g>
			<rect x="317.9" y="198.9" class="st6" width="22.9" height="135.3"/>
			<path class="st6" d="M310.1,191.4h38.6v150.5h-38.6V191.4z M332.9,206.5h-7.1v120.1h7.1V206.5z"/>
		</g>
	</g>
</g>
</svg>
