<svg width="913" height="1024" viewBox="0 0 913 1024" fill="none" xmlns="http://www.w3.org/2000/svg">
<g clip-path="url(#clip0_53_51)">
<path d="M1052 0H-8.48242V1032.26H1052V0Z" fill="#C13427"/>
<path d="M202.445 447.077C202.445 440.477 208.14 435.169 214.885 435.169C221.78 435.169 227.326 440.621 227.326 447.077C227.326 453.676 221.63 458.985 214.885 458.985C207.991 458.985 202.445 453.676 202.445 447.077Z" fill="white"/>
<path d="M214.886 465.154C204.544 465.154 196 457.12 196 447.077C196 437.178 204.394 429 214.886 429C225.228 429 233.771 437.034 233.771 447.077C233.771 456.976 225.378 465.154 214.886 465.154ZM214.886 441.195C211.438 441.195 208.74 443.921 208.74 447.077C208.74 450.233 211.588 452.959 214.886 452.959C218.333 452.959 221.031 450.233 221.031 447.077C221.031 443.921 218.333 441.195 214.886 441.195Z" fill="white"/>
<path d="M420.529 447.077C420.529 440.477 426.225 435.169 432.97 435.169C439.865 435.169 445.41 440.621 445.41 447.077C445.41 453.676 439.715 458.985 432.97 458.985C426.225 458.985 420.529 453.676 420.529 447.077Z" fill="white"/>
<path d="M433.119 465.154C422.777 465.154 414.234 457.12 414.234 447.077C414.234 437.178 422.627 429 433.119 429C443.462 429 452.005 437.034 452.005 447.077C451.855 456.976 443.462 465.154 433.119 465.154ZM433.119 441.195C429.672 441.195 426.974 443.921 426.974 447.077C426.974 450.233 429.822 452.959 433.119 452.959C436.567 452.959 439.265 450.233 439.265 447.077C439.265 443.921 436.417 441.195 433.119 441.195Z" fill="white"/>
<path d="M224.029 478.066H205.743V585.81H224.029V478.066Z" fill="white"/>
<path d="M230.474 591.835H199.447V471.897H230.474V591.835ZM212.038 579.784H217.733V484.091H212.038V579.784Z" fill="white"/>
<path d="M270.343 435.169H252.057V542.913H270.343V435.169Z" fill="white"/>
<path d="M245.762 429H276.639V548.939H245.612V429H245.762ZM264.048 441.195H258.353V536.887H264.048V441.195Z" fill="white"/>
<path d="M380.509 521.393C380.509 503.89 365.671 490.261 347.384 490.261C329.098 490.261 314.26 503.89 314.26 521.393V585.81H295.974V523.115C295.974 495.999 319.056 475.053 347.534 475.053C376.013 475.053 399.095 495.999 399.095 523.115V585.81H380.809V521.393H380.509Z" fill="white"/>
<path d="M405.241 591.836H374.214V521.25C374.214 507.19 362.373 496.143 347.385 496.143C332.396 496.143 320.555 507.19 320.555 521.25V591.836H289.529V523.115C289.529 492.7 314.86 469.027 347.385 469.027C379.91 469.027 405.241 492.843 405.241 523.115V591.836ZM386.805 579.784H392.5V523.115C392.5 499.586 372.715 481.079 347.235 481.079C321.754 481.079 302.119 499.586 302.119 523.115V579.784H307.815V521.393C307.815 500.59 325.202 484.235 347.235 484.235C369.268 484.235 386.655 500.59 386.655 521.393V579.784H386.805Z" fill="white"/>
<path d="M272.891 573.902C272.891 580.502 267.196 585.81 260.451 585.81C253.706 585.81 248.01 580.358 248.01 573.902C248.01 567.446 253.706 561.994 260.451 561.994C267.196 561.994 272.891 567.303 272.891 573.902Z" fill="white"/>
<path d="M260.451 555.825C270.793 555.825 279.337 563.859 279.337 573.902C279.337 583.801 270.943 591.979 260.451 591.979C250.109 591.979 241.565 583.945 241.565 573.902C241.565 564.003 249.959 555.825 260.451 555.825ZM260.451 579.784C263.898 579.784 266.596 577.058 266.596 573.902C266.596 570.746 263.749 568.02 260.451 568.02C257.004 568.02 254.306 570.746 254.306 573.902C254.306 577.058 257.004 579.784 260.451 579.784Z" fill="white"/>
<path d="M442.113 478.066H423.827V585.81H442.113V478.066Z" fill="white"/>
<path d="M448.558 591.835H417.531V471.897H448.558V591.835ZM430.272 579.784H435.967V484.091H430.272V579.784Z" fill="white"/>
<path d="M641.61 519.958V585.81H623.324V518.237C623.324 502.455 609.984 490.261 593.497 490.261C577.009 490.261 563.67 502.455 563.67 518.237V585.953H545.384V518.237C545.384 502.455 532.044 490.261 515.556 490.261C499.069 490.261 485.729 502.455 485.729 518.237V585.953H467.443V520.102C467.443 494.708 488.877 475.197 515.556 475.197C531.144 475.197 545.234 481.94 554.527 492.7C563.67 481.94 577.909 475.197 593.497 475.197C620.177 475.053 641.61 494.708 641.61 519.958Z" fill="white"/>
<path d="M647.906 591.836H616.879V518.237C616.879 505.899 606.537 496.286 593.347 496.286C580.157 496.286 569.815 505.899 569.815 518.237V591.979H538.939V518.237C538.939 505.899 528.597 496.286 515.407 496.286C502.217 496.286 491.875 505.899 491.875 518.237V591.979H460.998V520.102C460.998 491.552 484.98 469.171 515.407 469.171C529.946 469.171 543.885 474.479 554.377 483.948C564.719 474.479 578.658 469.171 593.347 469.171C623.924 469.171 647.906 491.552 647.906 520.102V591.836ZM629.62 579.784H635.315V519.958C635.315 498.151 616.879 481.079 593.497 481.079C580.157 481.079 567.717 486.674 559.323 496.43L554.527 502.168L549.581 496.573C541.037 486.817 528.597 481.222 515.407 481.222C491.875 481.222 473.588 498.295 473.588 520.102V579.928H479.284V518.237C479.284 499.156 495.172 484.235 515.407 484.235C535.641 484.235 551.529 499.156 551.529 518.237V579.928H557.225V518.237C557.225 499.156 573.113 484.235 593.347 484.235C613.582 484.235 629.47 499.156 629.47 518.237V579.784H629.62Z" fill="white"/>
<path d="M780.705 532.01V585.953H762.719V570.315C752.227 581.649 737.238 588.823 720.151 588.823C686.727 588.823 659.747 563.285 659.747 531.866C659.747 500.59 686.876 474.91 720.151 474.91C753.576 475.053 780.705 500.59 780.705 532.01ZM762.719 532.01C762.719 509.055 743.683 490.261 720.451 490.261C697.069 490.261 678.183 509.055 678.183 532.01C678.183 554.964 697.219 573.759 720.451 573.759C743.833 573.615 762.719 554.964 762.719 532.01Z" fill="white"/>
<path d="M720.151 594.848C683.279 594.848 653.302 566.585 653.302 531.866C653.302 497.147 683.279 468.884 720.151 468.884C757.023 468.884 787 497.147 787 531.866V591.835H756.423V583.801C745.931 591.118 733.491 594.848 720.151 594.848ZM720.151 481.079C690.324 481.079 666.042 503.89 666.042 531.866C666.042 559.842 690.324 582.654 720.151 582.654C734.84 582.654 748.18 576.771 757.922 566.155L769.014 554.104V579.641H774.26V531.723C774.41 503.89 750.128 481.079 720.151 481.079ZM720.451 579.784C693.621 579.784 671.738 558.408 671.738 532.01C671.738 505.612 693.621 484.235 720.451 484.235C747.28 484.235 769.164 505.612 769.164 532.01C769.014 558.264 747.28 579.784 720.451 579.784ZM720.451 496.286C700.516 496.286 684.478 512.355 684.478 532.01C684.478 551.665 700.666 567.733 720.451 567.733C740.385 567.733 756.423 551.665 756.423 532.01C756.423 512.355 740.236 496.286 720.451 496.286Z" fill="white"/>
<path d="M290.1 707.8C304.128 707.8 315.5 696.428 315.5 682.4C315.5 668.372 304.128 657 290.1 657C276.072 657 264.7 668.372 264.7 682.4C264.7 696.428 276.072 707.8 290.1 707.8Z" fill="#C13427"/>
<path d="M358 707.8C372.028 707.8 383.4 696.428 383.4 682.4C383.4 668.372 372.028 657 358 657C343.972 657 332.6 668.372 332.6 682.4C332.6 696.428 343.972 707.8 358 707.8Z" fill="#5B5A55"/>
<path d="M425.9 707.8C439.928 707.8 451.3 696.428 451.3 682.4C451.3 668.372 439.928 657 425.9 657C411.872 657 400.5 668.372 400.5 682.4C400.5 696.428 411.872 707.8 425.9 707.8Z" fill="#D1DDD1"/>
<path d="M493.8 707.8C507.828 707.8 519.2 696.428 519.2 682.4C519.2 668.372 507.828 657 493.8 657C479.772 657 468.4 668.372 468.4 682.4C468.4 696.428 479.772 707.8 493.8 707.8Z" fill="#5E8797"/>
<path d="M561.7 707.8C575.728 707.8 587.1 696.428 587.1 682.4C587.1 668.372 575.728 657 561.7 657C547.672 657 536.3 668.372 536.3 682.4C536.3 696.428 547.672 707.8 561.7 707.8Z" fill="#222E2E"/>
<path d="M629.6 707.8C643.628 707.8 655 696.428 655 682.4C655 668.372 643.628 657 629.6 657C615.572 657 604.2 668.372 604.2 682.4C604.2 696.428 615.572 707.8 629.6 707.8Z" fill="#631D16"/>
</g>
<defs>
<clipPath id="clip0_53_51">
<rect width="1052" height="1024" fill="white"/>
</clipPath>
</defs>
</svg>
