<?xml version="1.0" encoding="utf-8"?>
<!-- Generator: Adobe Illustrator 22.0.0, SVG Export Plug-In . SVG Version: 6.00 Build 0)  -->
<svg version="1.1" id="Layer_1" xmlns="http://www.w3.org/2000/svg" xmlns:xlink="http://www.w3.org/1999/xlink" x="0px" y="0px"
	 viewBox="0 0 595.3 595.3" style="enable-background:new 0 0 595.3 595.3;" xml:space="preserve">
<style type="text/css">
	.st0{fill:#fff;}
	.st1{fill:#D1DDD1;}
	.st2{fill:#5B5A55;}
	.st3{fill:#5E8797;}
	.st4{fill:#222E2E;}
	.st5{fill:#631D16;}
	.st6{fill:none;stroke:#C13427;stroke-miterlimit:10;}
</style>
<g>
	<g>
		<path class="st0" d="M130.4,234.4c0-4.6,3.8-8.3,8.3-8.3c4.6,0,8.3,3.8,8.3,8.3c0,4.6-3.8,8.3-8.3,8.3
			C134.2,242.7,130.4,239,130.4,234.4z"/>
		<path class="st0" d="M138.8,246.9c-6.9,0-12.6-5.6-12.6-12.6s5.6-12.6,12.6-12.6c6.9,0,12.6,5.6,12.6,12.6
			S145.7,246.9,138.8,246.9z M138.8,230.2c-2.3,0-4.1,1.9-4.1,4.1c0,2.3,1.9,4.1,4.1,4.1c2.3,0,4.1-1.9,4.1-4.1
			C142.9,232.1,141.1,230.2,138.8,230.2z"/>
	</g>
	<g>
		<path class="st0" d="M276,234.4c0-4.6,3.8-8.3,8.3-8.3s8.3,3.8,8.3,8.3c0,4.6-3.8,8.3-8.3,8.3S276,239,276,234.4z"/>
		<path class="st0" d="M284.3,246.9c-6.9,0-12.6-5.6-12.6-12.6s5.6-12.6,12.6-12.6c6.9,0,12.6,5.6,12.6,12.6
			S291.2,246.9,284.3,246.9z M284.3,230.2c-2.3,0-4.1,1.9-4.1,4.1c0,2.3,1.9,4.1,4.1,4.1c2.3,0,4.1-1.9,4.1-4.1
			C288.4,232.1,286.6,230.2,284.3,230.2z"/>
	</g>
	<g>
		<rect x="132.7" y="256" class="st0" width="12.2" height="75.1"/>
		<path class="st0" d="M149.1,335.3h-20.7v-83.6h20.7V335.3z M136.9,326.9h3.8v-66.7h-3.8V326.9z"/>
	</g>
	<g>
		<rect x="163.5" y="226" class="st0" width="12.2" height="75.1"/>
		<path class="st0" d="M159.3,221.8H180v83.6h-20.7V221.8z M171.6,230.2h-3.8V297h3.8V230.2z"/>
	</g>
	<g>
		<path class="st0" d="M249.2,286.2c0-12.2-9.9-21.7-22.1-21.7s-22.1,9.5-22.1,21.7v44.9h-12.2v-43.7c0-18.9,15.4-33.5,34.4-33.5
			s34.4,14.6,34.4,33.5v43.7h-12.2V286.2z"/>
		<path class="st0" d="M265.7,335.3H245v-49.2c0-9.8-7.9-17.5-17.9-17.5s-17.9,7.7-17.9,17.5v49.2h-20.7v-47.9
			c0-21.2,16.9-37.7,38.6-37.7s38.6,16.6,38.6,37.7V335.3z M253.5,326.9h3.8v-39.5c0-16.4-13.2-29.3-30.2-29.3S197,271,197,287.4
			v39.5h3.8v-40.7c0-14.5,11.6-25.9,26.3-25.9s26.3,11.4,26.3,25.9V326.9z"/>
	</g>
	<g>
		<path class="st0" d="M177.5,322.8c0,4.6-3.8,8.3-8.3,8.3c-4.6,0-8.3-3.8-8.3-8.3s3.8-8.3,8.3-8.3
			C173.7,314.4,177.5,318.2,177.5,322.8z"/>
		<path class="st0" d="M169.1,310.2c6.9,0,12.6,5.6,12.6,12.6c0,6.9-5.6,12.6-12.6,12.6c-6.9,0-12.6-5.6-12.6-12.6
			C156.5,315.8,162.2,310.2,169.1,310.2z M169.1,326.9c2.3,0,4.1-1.9,4.1-4.1s-1.9-4.1-4.1-4.1c-2.3,0-4.1,1.9-4.1,4.1
			S166.8,326.9,169.1,326.9z"/>
	</g>
	<g>
		<rect x="278.2" y="256" class="st0" width="12.2" height="75.1"/>
		<path class="st0" d="M294.6,335.3H274v-83.6h20.7V335.3z M282.4,326.9h3.8v-66.7h-3.8V326.9z"/>
	</g>
	<g>
		<path class="st0" d="M423.4,285.2v45.9h-12.2V284c0-11-8.9-19.5-19.9-19.5c-11,0-19.9,8.5-19.9,19.5v47.2h-12.2V284
			c0-11-8.9-19.5-19.9-19.5s-19.9,8.5-19.9,19.5v47.2h-12.2v-45.9c0-17.7,14.3-31.3,32.1-31.3c10.4,0,19.8,4.7,26,12.2
			c6.1-7.5,15.6-12.2,26-12.2C409.1,253.9,423.4,267.5,423.4,285.2z"/>
		<path class="st0" d="M427.6,335.3H407V284c0-8.6-6.9-15.3-15.7-15.3c-8.8,0-15.7,6.7-15.7,15.3v51.4h-20.7V284
			c0-8.6-6.9-15.3-15.7-15.3s-15.7,6.7-15.7,15.3v51.4h-20.7v-50.1c0-19.9,16-35.5,36.3-35.5c9.7,0,19,3.7,26,10.3
			c6.9-6.6,16.2-10.3,26-10.3c20.4,0,36.4,15.6,36.4,35.5V335.3z M415.4,326.9h3.8v-41.7c0-15.2-12.3-27.1-27.9-27.1
			c-8.9,0-17.2,3.9-22.8,10.7l-3.2,4l-3.3-3.9c-5.7-6.8-14-10.7-22.8-10.7c-15.7,0-27.9,11.9-27.9,27.1v41.7h3.8v-43
			c0-13.3,10.6-23.7,24.1-23.7c13.5,0,24.1,10.4,24.1,23.7v43h3.8v-43c0-13.3,10.6-23.7,24.1-23.7c13.5,0,24.1,10.4,24.1,23.7V326.9
			z"/>
	</g>
	<g>
		<path class="st0" d="M516.2,293.6v37.6h-12v-10.9c-7,7.9-17,12.9-28.4,12.9c-22.3,0-40.3-17.8-40.3-39.7
			c0-21.8,18.1-39.7,40.3-39.7C498.1,253.9,516.2,271.7,516.2,293.6z M504.3,293.6c0-16-12.7-29.1-28.2-29.1
			c-15.6,0-28.2,13.1-28.2,29.1c0,16,12.7,29.1,28.2,29.1C491.6,322.6,504.3,309.6,504.3,293.6z"/>
		<path class="st0" d="M475.9,337.4c-24.6,0-44.6-19.7-44.6-43.9s20-43.9,44.6-43.9c24.6,0,44.6,19.7,44.6,43.9v41.8h-20.4v-5.6
			C493.1,334.7,484.7,337.4,475.9,337.4z M475.9,258.1c-19.9,0-36.1,15.9-36.1,35.4c0,19.5,16.2,35.4,36.1,35.4
			c9.8,0,18.7-4.1,25.2-11.5l7.4-8.4v17.8h3.5v-33.4C512,274,495.8,258.1,475.9,258.1z M476,326.8c-17.9,0-32.5-14.9-32.5-33.3
			s14.6-33.3,32.5-33.3c17.9,0,32.5,14.9,32.5,33.3S493.9,326.8,476,326.8z M476,268.7c-13.3,0-24,11.2-24,24.9
			c0,13.7,10.8,24.9,24,24.9s24-11.2,24-24.9C500.1,279.8,489.3,268.7,476,268.7z"/>
	</g>
</g>
</svg>
