<svg width="162" height="46" viewBox="0 0 162 46" fill="none" xmlns="http://www.w3.org/2000/svg">
<path d="M1.7207 5.01356C1.7207 3.19766 3.27824 1.73706 5.12269 1.73706C7.00812 1.73706 8.52467 3.23714 8.52467 5.01356C8.52467 6.82945 6.96713 8.29006 5.12269 8.29006C3.27824 8.29006 1.7207 6.82945 1.7207 5.01356Z" fill="#C13427"/>
<path d="M5.16446 9.94792C2.3363 9.94792 0 7.73728 0 4.97397C0 2.21065 2.29532 0 5.16446 0C7.99261 0 10.3289 2.21065 10.3289 4.97397C10.3289 7.73728 7.99261 9.94792 5.16446 9.94792ZM5.16446 3.35545C4.22174 3.35545 3.48396 4.1055 3.48396 4.97397C3.48396 5.88191 4.26273 6.59247 5.16446 6.59247C6.10718 6.59247 6.84495 5.84244 6.84495 4.97397C6.84495 4.1055 6.10718 3.35545 5.16446 3.35545Z" fill="#C13427"/>
<path d="M61.3984 5.01356C61.3984 3.19766 62.956 1.73706 64.8004 1.73706C66.6449 1.73706 68.2024 3.23714 68.2024 5.01356C68.2024 6.82945 66.6449 8.29006 64.8004 8.29006C62.956 8.29006 61.3984 6.82945 61.3984 5.01356Z" fill="#C13427"/>
<path d="M64.8012 9.94792C61.973 9.94792 59.6367 7.73728 59.6367 4.97397C59.6367 2.21065 61.932 0 64.8012 0C67.6293 0 69.9656 2.21065 69.9656 4.97397C69.9656 7.73728 67.6293 9.94792 64.8012 9.94792ZM64.8012 3.35545C63.8584 3.35545 63.1207 4.1055 63.1207 4.97397C63.1207 5.88191 63.8994 6.59247 64.8012 6.59247C65.7439 6.59247 66.4817 5.84244 66.4817 4.97397C66.4817 4.1055 65.7439 3.35545 64.8012 3.35545Z" fill="#C13427"/>
<path d="M7.66457 13.5403H2.66406V43.1867H7.66457V13.5403Z" fill="#C13427"/>
<path d="M9.38681 44.8446H0.902344V11.8428H9.38681V44.8446ZM4.3863 41.5286H5.94384V15.1982H4.3863V41.5286Z" fill="#C13427"/>
<path d="M20.2876 1.69727H15.2871V31.3437H20.2876V1.69727Z" fill="#C13427"/>
<path d="M13.5664 0.0395508H22.0509V33.0414H13.5664V0.0395508ZM18.6079 3.35552H17.0504V29.7254H18.6079V3.35552Z" fill="#C13427"/>
<path d="M50.414 25.4619C50.414 20.6458 46.3562 16.8956 41.3557 16.8956C36.3552 16.8956 32.2974 20.6458 32.2974 25.4619V43.1866H27.2969V25.9356C27.2969 18.4747 33.609 12.7112 41.3967 12.7112C49.1843 12.7112 55.4964 18.4747 55.4964 25.9356V43.1866H50.4959V25.4619H50.414Z" fill="#C13427"/>
<path d="M57.1777 44.8446H48.6932V25.4225C48.6932 21.5538 45.4552 18.5142 41.3564 18.5142C37.2577 18.5142 34.0196 21.5538 34.0196 25.4225V44.8446H25.5352V25.9356C25.5352 17.5667 32.4621 11.0532 41.3564 11.0532C50.2508 11.0532 57.1777 17.6062 57.1777 25.9356V44.8446ZM52.1772 41.5286H53.7347V25.9356C53.7347 19.4616 48.3243 14.3692 41.3564 14.3692C34.3885 14.3692 29.0191 19.4616 29.0191 25.9356V41.5286H30.5766V25.4619C30.5766 19.7379 35.3312 15.2377 41.3564 15.2377C47.3816 15.2377 52.1362 19.7379 52.1362 25.4619V41.5286H52.1772Z" fill="#C13427"/>
<path d="M21.0266 39.9103C21.0266 41.7262 19.4691 43.1868 17.6246 43.1868C15.7392 43.1868 14.2227 41.6867 14.2227 39.9103C14.2227 38.1339 15.7802 36.6338 17.6246 36.6338C19.4691 36.5943 21.0266 38.0944 21.0266 39.9103Z" fill="#C13427"/>
<path d="M17.5844 34.9363C20.4125 34.9363 22.7488 37.1469 22.7488 39.9102C22.7488 42.6341 20.4535 44.8842 17.5844 44.8842C14.7562 44.8842 12.4199 42.6735 12.4199 39.9102C12.4199 37.1469 14.7562 34.9363 17.5844 34.9363ZM17.5844 41.5287C18.5271 41.5287 19.2649 40.7787 19.2649 39.9102C19.2649 39.0418 18.4861 38.2917 17.5844 38.2917C16.6417 38.2917 15.9039 39.0418 15.9039 39.9102C15.9039 40.7787 16.6417 41.5287 17.5844 41.5287Z" fill="#C13427"/>
<path d="M67.3013 13.5403H62.3008V43.1867H67.3013V13.5403Z" fill="#C13427"/>
<path d="M69.0236 44.8446H60.5801V11.8428H69.0645V44.8446H69.0236ZM64.023 41.5286H65.5806V15.1982H64.023V41.5286Z" fill="#C13427"/>
<path d="M121.815 25.0672V43.1866H116.815V24.5935C116.815 20.2511 113.167 16.8957 108.658 16.8957C104.15 16.8957 100.502 20.2511 100.502 24.5935V43.2261H95.5011V24.5935C95.5011 20.2511 91.8532 16.8957 87.3446 16.8957C82.8359 16.8957 79.188 20.2511 79.188 24.5935V43.2261H74.1875V25.1067C74.1875 18.1194 80.0487 12.7507 87.3446 12.7507C91.6073 12.7507 95.4601 14.6061 98.0014 17.5668C100.502 14.6061 104.395 12.7507 108.658 12.7507C115.954 12.7112 121.815 18.08 121.815 25.0672Z" fill="#C13427"/>
<path d="M123.537 44.8447H115.094V24.5935C115.094 21.1986 112.266 18.5537 108.659 18.5537C105.052 18.5537 102.224 21.1986 102.224 24.5935V44.8841H93.7394V24.5935C93.7394 21.1986 90.9112 18.5537 87.3043 18.5537C83.6974 18.5537 80.8692 21.1986 80.8692 24.5935V44.8841H72.3848V25.1067C72.3848 17.251 78.9428 11.0928 87.2633 11.0928C91.2391 11.0928 95.051 12.5534 97.9201 15.1588C100.748 12.5534 104.56 11.0928 108.577 11.0928C116.938 11.0928 123.496 17.251 123.496 25.1067V44.8447H123.537ZM118.537 41.5287H120.095V25.0672C120.095 19.0669 115.053 14.3693 108.659 14.3693C105.011 14.3693 101.609 15.9088 99.3137 18.5932L98.0021 20.1722L96.6495 18.6327C94.3132 15.9483 90.9112 14.4088 87.3043 14.4088C80.8692 14.4088 75.8687 19.1064 75.8687 25.1067V41.5682H77.4263V24.5935C77.4263 19.3432 81.771 15.2377 87.3043 15.2377C92.8377 15.2377 97.1823 19.3432 97.1823 24.5935V41.5682H98.7399V24.5935C98.7399 19.3432 103.085 15.2377 108.618 15.2377C114.151 15.2377 118.496 19.3432 118.496 24.5935V41.5287H118.537Z" fill="#C13427"/>
<path d="M159.851 28.383V43.226H154.932V38.9231C152.063 42.0417 147.964 44.0155 143.291 44.0155C134.151 44.0155 126.773 36.9888 126.773 28.3436C126.773 19.7378 134.192 12.6716 143.291 12.6716C152.432 12.7111 159.851 19.7378 159.851 28.383ZM154.973 28.383C154.973 22.0669 149.768 16.8956 143.414 16.8956C137.02 16.8956 131.856 22.0669 131.856 28.383C131.856 34.6992 137.061 39.8705 143.414 39.8705C149.768 39.831 154.973 34.6992 154.973 28.383Z" fill="#C13427"/>
<path d="M143.333 45.6735C133.25 45.6735 125.053 37.8968 125.053 28.3436C125.053 18.7904 133.25 11.0137 143.333 11.0137C153.416 11.0137 161.614 18.7904 161.614 28.3436V44.8445H153.252V42.6339C150.383 44.6077 146.94 45.6735 143.333 45.6735ZM143.333 14.3691C135.177 14.3691 128.537 20.6458 128.537 28.3436C128.537 36.0414 135.177 42.3181 143.333 42.3181C147.35 42.3181 150.998 40.6995 153.662 37.7783L156.695 34.4624V41.4891H158.13V28.3041C158.13 20.6458 151.49 14.3691 143.333 14.3691ZM143.374 41.4891C136.037 41.4891 130.053 35.6072 130.053 28.3436C130.053 21.08 136.037 15.1981 143.374 15.1981C150.711 15.1981 156.695 21.08 156.695 28.3436C156.695 35.6072 150.711 41.4891 143.374 41.4891ZM143.374 18.5536C137.923 18.5536 133.537 22.9749 133.537 28.3831C133.537 33.7913 137.964 38.2126 143.374 38.2126C148.785 38.2126 153.211 33.7913 153.211 28.3831C153.252 22.9354 148.826 18.5536 143.374 18.5536Z" fill="#C13427"/>
</svg>
