<svg width="221" height="185" viewBox="0 0 221 185" fill="none" xmlns="http://www.w3.org/2000/svg">
<rect width="221" height="185" rx="30" fill="#5E8797" fill-opacity="0.5"/>
<g clip-path="url(#clip0_108_277)">
<path d="M176.625 130.5C176.625 132.986 175.637 135.371 173.879 137.129C172.121 138.887 169.736 139.875 167.25 139.875H54.75C52.2636 139.875 49.879 138.887 48.1209 137.129C46.3627 135.371 45.375 132.986 45.375 130.5V74.25C45.375 71.7636 46.3627 69.379 48.1209 67.6209C49.879 65.8627 52.2636 64.875 54.75 64.875H65.7375C73.1929 64.8709 80.3416 61.9069 85.6125 56.6344L93.3938 48.8719C95.1469 47.1182 97.5234 46.1305 100.003 46.125H121.978C124.464 46.1255 126.849 47.1136 128.606 48.8719L136.369 56.6344C138.981 59.2473 142.082 61.32 145.496 62.7339C148.909 64.1479 152.568 64.8754 156.262 64.875H167.25C169.736 64.875 172.121 65.8627 173.879 67.6209C175.637 69.379 176.625 71.7636 176.625 74.25V130.5ZM54.75 55.5C49.7772 55.5 45.0081 57.4754 41.4917 60.9917C37.9754 64.5081 36 69.2772 36 74.25L36 130.5C36 135.473 37.9754 140.242 41.4917 143.758C45.0081 147.275 49.7772 149.25 54.75 149.25H167.25C172.223 149.25 176.992 147.275 180.508 143.758C184.025 140.242 186 135.473 186 130.5V74.25C186 69.2772 184.025 64.5081 180.508 60.9917C176.992 57.4754 172.223 55.5 167.25 55.5H156.262C151.29 55.4989 146.522 53.5228 143.006 50.0063L135.244 42.2437C131.728 38.7272 126.96 36.7511 121.988 36.75H100.012C95.0401 36.7511 90.2717 38.7272 86.7562 42.2437L78.9938 50.0063C75.4783 53.5228 70.7099 55.4989 65.7375 55.5H54.75Z" fill="#5E8797" fill-opacity="0.5"/>
<path d="M111 121.125C104.784 121.125 98.8226 118.656 94.4272 114.26C90.0318 109.865 87.5625 103.904 87.5625 97.6875C87.5625 91.4715 90.0318 85.5101 94.4272 81.1147C98.8226 76.7193 104.784 74.25 111 74.25C117.216 74.25 123.177 76.7193 127.573 81.1147C131.968 85.5101 134.438 91.4715 134.438 97.6875C134.438 103.904 131.968 109.865 127.573 114.26C123.177 118.656 117.216 121.125 111 121.125ZM111 130.5C119.702 130.5 128.048 127.043 134.202 120.889C140.355 114.736 143.812 106.39 143.812 97.6875C143.812 88.9851 140.355 80.6391 134.202 74.4856C128.048 68.332 119.702 64.875 111 64.875C102.298 64.875 93.9516 68.332 87.7981 74.4856C81.6445 80.6391 78.1875 88.9851 78.1875 97.6875C78.1875 106.39 81.6445 114.736 87.7981 120.889C93.9516 127.043 102.298 130.5 111 130.5ZM64.125 78.9375C64.125 80.1807 63.6311 81.373 62.7521 82.2521C61.873 83.1311 60.6807 83.625 59.4375 83.625C58.1943 83.625 57.002 83.1311 56.1229 82.2521C55.2439 81.373 54.75 80.1807 54.75 78.9375C54.75 77.6943 55.2439 76.502 56.1229 75.6229C57.002 74.7439 58.1943 74.25 59.4375 74.25C60.6807 74.25 61.873 74.7439 62.7521 75.6229C63.6311 76.502 64.125 77.6943 64.125 78.9375Z" fill="#5E8797" fill-opacity="0.5"/>
</g>
<defs>
<clipPath id="clip0_108_277">
<rect width="150" height="150" fill="white" transform="translate(36 18)"/>
</clipPath>
</defs>
</svg>
